<svg width="36" height="24" viewBox="0 0 36 24" fill="none" xmlns="http://www.w3.org/2000/svg">
<path d="M19.1708 13.134L13.7799 22.3669L8.38901 13.134H19.1708ZM20.615 12.3088H6.93896L13.7799 24L20.615 12.3088Z" fill="#263238"/>
<path d="M28.5436 1.65038L33.9345 10.8833H23.1527L28.5436 1.65038ZM28.5436 0L21.7026 11.6912H35.3846L28.5436 0Z" fill="#263238"/>
<path d="M0.384521 0L6.12043 10.3409L12.3884 0.259661L0.384521 0Z" fill="#4CAF4F"/>
<path d="M13.7799 0.905884L19.7965 11.189H7.75171L13.7799 0.905884Z" fill="#4CAF4F"/>
<path d="M21.346 13.4341L27.3684 24H15.0371L21.1589 13.4341H21.346Z" fill="#4CAF4F"/>
<path d="M22.6499 12.7935L28.5436 23.1978L34.5193 12.7935H22.6499Z" fill="#4CAF4F"/>
</svg>
