<svg width="65" height="57" viewBox="0 0 65 57" fill="none" xmlns="http://www.w3.org/2000/svg">
<path d="M65 38.5288C65 48.4699 56.9411 56.5288 47 56.5288L20 56.5288C17.2386 56.5288 15 54.2902 15 51.5288L15 17.5288C15 12.006 19.4772 7.52881 25 7.52881L60 7.52881C62.7614 7.52881 65 9.76739 65 12.5288L65 38.5288Z" fill="#E8F5E9"/>
<path d="M28.3117 24.1734C28.0709 24.1734 27.8473 24.1072 27.6487 24.0007V24.0036C27.6487 24.3824 27.5014 24.7382 27.2343 25.0046C26.9671 25.2718 26.6116 25.4191 26.2332 25.4191C25.9889 25.4191 25.7625 25.3512 25.5617 25.2419C25.5415 25.5885 25.4029 25.9124 25.1558 26.1598C24.8886 26.427 24.5331 26.5742 24.1545 26.5742C23.4022 26.5742 22.7913 25.9829 22.7473 25.2417C22.5145 25.3675 22.2513 25.4334 21.9799 25.416C21.2398 25.3675 20.6603 24.7281 20.6603 23.96V17.5933L19.9353 18.8493C19.6592 19.3297 19.1423 19.6279 18.5858 19.6279C18.3147 19.6279 18.0468 19.5568 17.8095 19.4208C17.5141 19.2496 17.3028 18.9746 17.2149 18.6457C17.1265 18.3166 17.1722 17.9724 17.3431 17.6774C17.3433 17.6774 19.715 13.5702 19.8597 13.3179C19.8769 13.28 19.9259 13.1699 19.9676 13.0762C20.0075 12.9866 20.0416 12.8948 20.0744 12.8024C20.7896 10.7831 22.5607 9.52879 24.6966 9.52879C27.4703 9.52879 29.7268 11.9757 29.7268 14.9834L29.727 22.7577C29.727 23.1361 29.58 23.4916 29.3131 23.7591C29.0459 24.0262 28.6904 24.1735 28.3116 24.1735L28.3117 24.1734ZM24.6966 10.2809C22.8613 10.2809 21.3984 11.3176 20.7833 13.0539C20.744 13.1642 20.703 13.2745 20.6552 13.3819C20.5164 13.6931 20.5164 13.6931 20.4773 13.7379L20.4721 13.7334C20.2784 14.0988 19.7031 15.0952 17.9943 18.0538C17.9241 18.1751 17.9055 18.316 17.9413 18.4508C17.9776 18.5856 18.0645 18.6991 18.1849 18.7686C18.5586 18.9832 19.0703 18.8447 19.2833 18.4736L20.7108 16.0022C20.7961 15.8549 20.9685 15.7826 21.1339 15.8274C21.2983 15.8714 21.4126 16.0206 21.4126 16.1907V23.9602C21.4126 24.3268 21.6892 24.6432 22.0292 24.6656C22.2252 24.6759 22.408 24.6102 22.5454 24.4731C22.6702 24.3482 22.739 24.1819 22.739 24.004V18.9226C22.739 18.7148 22.9075 18.5464 23.1153 18.5464C23.3231 18.5464 23.4915 18.7146 23.4915 18.9226L23.4913 25.159C23.4913 25.5247 23.7889 25.8222 24.1545 25.8222C24.3321 25.8222 24.499 25.7534 24.6241 25.6285C24.7489 25.5034 24.8177 25.3366 24.8177 25.159V18.9226C24.8177 18.7148 24.9859 18.5464 25.194 18.5464C25.4018 18.5464 25.5702 18.7146 25.5702 18.9226L25.57 23.9456V24.004C25.57 24.3694 25.8675 24.6669 26.2334 24.6669C26.4108 24.6669 26.5772 24.5979 26.703 24.4726C26.8278 24.3479 26.8966 24.1816 26.8966 24.0037V18.9224C26.8966 18.7146 27.0649 18.5461 27.2729 18.5461C27.4807 18.5461 27.6491 18.7143 27.6491 18.9224L27.6487 22.7579C27.6487 23.1238 27.9462 23.4214 28.3116 23.4214C28.4895 23.4214 28.6558 23.3523 28.7807 23.2277C28.906 23.1024 28.9746 22.9356 28.9746 22.7579L28.9748 14.9836C28.9748 12.3908 27.0557 10.281 24.6966 10.281L24.6966 10.2809Z" fill="#103E13"/>
<path d="M13.5287 29.5768L18.9885 26.3015C19.6467 25.9062 20.4937 26.0742 20.9159 26.6841C21.07 26.9063 21.1486 27.1652 21.1609 27.4289C21.3645 27.3226 21.5859 27.2649 21.8114 27.2649C21.9268 27.2649 22.0427 27.2793 22.1572 27.3078C22.5241 27.3994 22.8332 27.6287 23.0276 27.9528C23.2222 28.2775 23.2789 28.6579 23.1873 29.0243C23.1027 29.3634 22.8966 29.6487 22.6098 29.8445C22.8103 29.9628 22.9833 30.1241 23.1062 30.3296C23.3008 30.6542 23.3576 31.0345 23.2662 31.4013C23.1746 31.7677 22.9453 32.0768 22.6207 32.2717L22.6188 32.2728C22.8158 32.3909 22.9856 32.5506 23.1072 32.753C23.302 33.0776 23.3588 33.4581 23.2672 33.8249C23.1753 34.1915 22.946 34.5006 22.6219 34.6952L15.9555 38.6945C14.7113 39.4407 13.2729 39.6982 11.906 39.419C10.5268 39.1373 9.3846 38.3445 8.6901 37.1867C7.59101 35.355 7.75573 33.1907 9.11912 31.5389C9.18156 31.4636 9.24305 31.3868 9.29889 31.3071C9.35802 31.223 9.42705 31.1241 9.45061 31.0901C9.59173 30.838 11.8945 26.6891 11.8943 26.6896C12.1268 26.27 12.5626 26.0325 13.0122 26.0328C13.2218 26.0328 13.4346 26.0844 13.6308 26.1932C13.8679 26.3256 14.0669 26.5186 14.2062 26.7511C14.4924 27.2282 14.5026 27.8252 14.233 28.3084L13.5287 29.5768ZM13.5615 27.1379C13.4884 27.0161 13.3881 26.919 13.2653 26.8502C13.0116 26.7098 12.6921 26.8012 12.5524 27.054C10.9047 30.0226 10.343 31.0342 10.1262 31.3942L10.1312 31.3954C10.113 31.4557 10.113 31.4557 9.91466 31.7391C9.84727 31.835 9.774 31.9271 9.69932 32.0178C8.52695 33.4383 8.39083 35.2258 9.33485 36.7997C9.9196 37.7746 10.886 38.443 12.0562 38.6819C13.2392 38.9225 14.4859 38.6987 15.5681 38.0494L22.2351 34.0499C22.3873 33.9587 22.4947 33.8138 22.5376 33.6421C22.5805 33.4706 22.5538 33.2922 22.4624 33.14C22.2744 32.8267 21.8661 32.7237 21.5528 32.9124L18.2639 34.8856C18.0858 34.9925 17.8544 34.935 17.7477 34.7567C17.6407 34.5786 17.6984 34.3475 17.8765 34.2405L21.1657 32.2674L22.2339 31.6265C22.3861 31.5351 22.4938 31.3902 22.5367 31.219C22.5795 31.0472 22.5529 30.8686 22.4615 30.7167C22.2733 30.4031 21.865 30.3011 21.5519 30.4891L17.1945 33.103C17.0159 33.2102 16.7852 33.1523 16.6783 32.9742C16.5713 32.7961 16.6293 32.5649 16.8072 32.458L22.155 29.2499C22.3072 29.1585 22.4146 29.0138 22.4575 28.842C22.5004 28.6705 22.4738 28.4922 22.3826 28.34C22.2914 28.188 22.1465 28.0806 21.9748 28.0377C21.8021 27.9948 21.6244 28.0215 21.4727 28.1124L20.4827 28.7063C20.4825 28.7063 20.4825 28.7066 20.4823 28.7066H20.482L16.1249 31.3206C15.9463 31.428 15.7154 31.37 15.6087 31.1917C15.5017 31.0136 15.5597 30.7824 15.7376 30.6755L20.0949 28.0615C20.2471 27.9701 20.3548 27.8252 20.3977 27.6539C20.4448 27.4659 20.409 27.2737 20.2973 27.1125C20.1037 26.8324 19.6895 26.758 19.3754 26.9467L12.7132 30.9434C12.5674 31.0305 12.3806 31.0093 12.2583 30.8913C12.1358 30.773 12.1082 30.5871 12.1907 30.4385L13.576 27.9425C13.715 27.6931 13.7096 27.3849 13.5614 27.138L13.5615 27.1379Z" fill="#103E13"/>
<path d="M39.6174 37.1866C38.923 38.3445 37.7811 39.1371 36.4017 39.4189C35.0345 39.6976 33.5967 39.4405 32.3522 38.6944L25.6852 34.6949C25.3608 34.5003 25.1313 34.1912 25.0395 33.8241C24.9483 33.4577 25.0053 33.0772 25.1997 32.7531C25.321 32.5504 25.4911 32.3907 25.6883 32.2727L25.6864 32.2715C25.362 32.0769 25.1325 31.7678 25.0411 31.4012C24.9492 31.0346 25.0063 30.6538 25.2009 30.3292C25.3262 30.1207 25.4979 29.9577 25.694 29.842C25.4094 29.6462 25.2044 29.3619 25.1201 29.0245C25.0282 28.6577 25.0852 28.2771 25.2798 27.953C25.4742 27.6285 25.7835 27.3993 26.1501 27.3077C26.2646 27.2789 26.3808 27.2648 26.4957 27.2648C26.7214 27.265 26.9429 27.3223 27.1464 27.4288C27.1589 27.1651 27.2374 26.9062 27.3915 26.684C27.8139 26.0746 28.6602 25.9059 29.3194 26.3014L34.7789 29.5762L34.0752 28.3087C33.8052 27.8248 33.8151 27.2278 34.1013 26.7504C34.2408 26.5181 34.4401 26.3252 34.6783 26.1916C34.8741 26.0832 35.0861 26.0319 35.2953 26.0319C35.7446 26.0321 36.1809 26.2691 36.4132 26.6887C37.2227 28.1474 38.7503 30.8982 38.8578 31.0902C38.8806 31.1234 38.9496 31.2224 39.0088 31.3065C39.0651 31.3864 39.1259 31.4627 39.1888 31.5386C40.552 33.191 40.7164 35.355 39.6173 37.1866L39.6174 37.1866ZM38.6083 32.018C38.5334 31.9273 38.4599 31.8347 38.393 31.7393C38.1894 31.4505 38.1843 31.4429 38.1689 31.3673C37.931 30.9736 37.3505 29.9285 35.7548 27.0537C35.6149 26.8014 35.2968 26.7093 35.0435 26.8492C34.9189 26.9189 34.8188 27.0163 34.7457 27.1381C34.5978 27.3847 34.5921 27.6929 34.7318 27.9431L36.1167 30.4383C36.1994 30.5872 36.1718 30.7729 36.0495 30.8911C35.9275 31.0097 35.7409 31.0304 35.5944 30.9432L28.9322 26.9465C28.6181 26.7583 28.2042 26.832 28.01 27.1124C27.8984 27.2735 27.8628 27.4658 27.9094 27.6535C27.9523 27.8251 28.06 27.9697 28.2124 28.0611C28.2129 28.0614 28.2131 28.0618 28.2136 28.0621L32.5696 30.6753C32.7477 30.7823 32.8054 31.0132 32.6985 31.1915C32.5915 31.3694 32.3608 31.4276 32.1823 31.3204L26.8344 28.1123C26.6827 28.0213 26.5041 27.9945 26.3326 28.0376C26.1606 28.0805 26.016 28.1879 25.9248 28.3403C25.8334 28.4923 25.807 28.6706 25.8494 28.8421C25.8923 29.0137 25.9999 29.1586 26.1521 29.25L27.1928 29.8741L31.4997 32.4581C31.6778 32.5651 31.7356 32.796 31.6286 32.9743C31.5216 33.1522 31.291 33.2102 31.1124 33.1032L26.7555 30.4892C26.4422 30.3008 26.0341 30.403 25.8456 30.7168C25.7542 30.869 25.7278 31.0474 25.7702 31.2189C25.8131 31.3904 25.9208 31.5351 26.0732 31.6267L27.1414 32.2675L30.4301 34.2407C30.6082 34.3476 30.6659 34.5785 30.559 34.7569C30.452 34.9347 30.2214 34.9932 30.0428 34.8857L26.7541 32.9126C26.6024 32.8217 26.4245 32.7948 26.252 32.8379C26.0805 32.8808 25.9354 32.9882 25.8442 33.1402C25.753 33.2924 25.7264 33.471 25.7688 33.6422C25.8117 33.8138 25.9194 33.9584 26.0718 34.0501L32.7388 38.0495C33.8207 38.6986 35.0684 38.9233 36.2507 38.6821C37.4206 38.4432 38.3871 37.7748 38.9718 36.7999C39.9168 35.2256 39.7808 33.4379 38.6087 32.018L38.6083 32.018Z" fill="#103E13"/>
</svg>
