<svg width="65" height="57" viewBox="0 0 65 57" fill="none" xmlns="http://www.w3.org/2000/svg">
<path d="M65 38.5288C65 48.4699 56.9411 56.5288 47 56.5288L20 56.5288C17.2386 56.5288 15 54.2902 15 51.5288L15 17.5288C15 12.006 19.4772 7.52881 25 7.52881L60 7.52881C62.7614 7.52881 65 9.76739 65 12.5288L65 38.5288Z" fill="#E8F5E9"/>
<path d="M26.9163 19.5397C26.6042 19.5397 26.3506 19.2864 26.3506 18.974V18.0127C26.3506 17.7007 26.6038 17.447 26.9163 17.447C27.2283 17.447 27.4819 17.7003 27.4819 18.0127V18.974C27.4819 19.2864 27.2283 19.5397 26.9163 19.5397Z" fill="#103E13"/>
<path d="M24.5383 19.5397C24.2263 19.5397 23.9727 19.2864 23.9727 18.974V18.0127C23.9727 17.7007 24.2259 17.447 24.5383 17.447C24.8504 17.447 25.104 17.7003 25.104 18.0127V18.974C25.1036 19.2864 24.8508 19.5397 24.5383 19.5397Z" fill="#103E13"/>
<path d="M22.1604 19.5397C21.8484 19.5397 21.5947 19.2864 21.5947 18.974V18.0127C21.5947 17.7007 21.848 17.447 22.1604 17.447C22.4724 17.447 22.7261 17.7003 22.7261 18.0127V18.974C22.7261 19.2864 22.4728 19.5397 22.1604 19.5397Z" fill="#103E13"/>
<path d="M26.9163 23.4708C26.6042 23.4708 26.3506 23.2176 26.3506 22.9051V21.9442C26.3506 21.6322 26.6038 21.3785 26.9163 21.3785C27.2283 21.3785 27.4819 21.6318 27.4819 21.9442V22.9051C27.4819 23.2176 27.2283 23.4708 26.9163 23.4708Z" fill="#103E13"/>
<path d="M24.5383 23.4708C24.2263 23.4708 23.9727 23.2176 23.9727 22.9051V21.9442C23.9727 21.6322 24.2259 21.3785 24.5383 21.3785C24.8504 21.3785 25.104 21.6318 25.104 21.9442V22.9051C25.1036 23.2176 24.8508 23.4708 24.5383 23.4708Z" fill="#103E13"/>
<path d="M22.1604 23.4708C21.8484 23.4708 21.5947 23.2176 21.5947 22.9051V21.9442C21.5947 21.6322 21.848 21.3785 22.1604 21.3785C22.4724 21.3785 22.7261 21.6318 22.7261 21.9442V22.9051C22.7261 23.2176 22.4728 23.4708 22.1604 23.4708Z" fill="#103E13"/>
<path d="M26.9163 27.4021C26.6042 27.4021 26.3506 27.1489 26.3506 26.8364V25.8751C26.3506 25.5631 26.6038 25.3094 26.9163 25.3094C27.2283 25.3094 27.4819 25.5627 27.4819 25.8751V26.8364C27.4819 27.1489 27.2283 27.4021 26.9163 27.4021Z" fill="#103E13"/>
<path d="M24.5383 27.4021C24.2263 27.4021 23.9727 27.1489 23.9727 26.8364V25.8751C23.9727 25.5631 24.2259 25.3094 24.5383 25.3094C24.8504 25.3094 25.104 25.5627 25.104 25.8751V26.8364C25.1036 27.1489 24.8508 27.4021 24.5383 27.4021Z" fill="#103E13"/>
<path d="M22.1604 27.4021C21.8484 27.4021 21.5947 27.1489 21.5947 26.8364V25.8751C21.5947 25.5631 21.848 25.3094 22.1604 25.3094C22.4724 25.3094 22.7261 25.5627 22.7261 25.8751V26.8364C22.7261 27.1489 22.4728 27.4021 22.1604 27.4021Z" fill="#103E13"/>
<path d="M26.9163 31.3325C26.6042 31.3325 26.3506 31.0793 26.3506 30.7669V29.8055C26.3506 29.4935 26.6038 29.2399 26.9163 29.2399C27.2283 29.2399 27.4819 29.4931 27.4819 29.8055V30.7669C27.4819 31.0793 27.2283 31.3325 26.9163 31.3325Z" fill="#103E13"/>
<path d="M24.5383 31.3325C24.2263 31.3325 23.9727 31.0793 23.9727 30.7669V29.8055C23.9727 29.4935 24.2259 29.2399 24.5383 29.2399C24.8504 29.2399 25.104 29.4931 25.104 29.8055V30.7669C25.1036 31.0793 24.8508 31.3325 24.5383 31.3325Z" fill="#103E13"/>
<path d="M22.1604 31.3325C21.8484 31.3325 21.5947 31.0793 21.5947 30.7669V29.8055C21.5947 29.4935 21.848 29.2399 22.1604 29.2399C22.4724 29.2399 22.7261 29.4931 22.7261 29.8055V30.7669C22.7261 31.0793 22.4728 31.3325 22.1604 31.3325Z" fill="#103E13"/>
<path d="M26.9163 35.2638C26.6042 35.2638 26.3506 35.0105 26.3506 34.6981V33.7372C26.3506 33.4252 26.6038 33.1715 26.9163 33.1715C27.2283 33.1715 27.4819 33.4248 27.4819 33.7372V34.6981C27.4819 35.0101 27.2283 35.2638 26.9163 35.2638Z" fill="#103E13"/>
<path d="M24.5383 35.2638C24.2263 35.2638 23.9727 35.0105 23.9727 34.6981V33.7372C23.9727 33.4252 24.2259 33.1715 24.5383 33.1715C24.8504 33.1715 25.104 33.4248 25.104 33.7372V34.6981C25.1036 35.0101 24.8508 35.2638 24.5383 35.2638Z" fill="#103E13"/>
<path d="M22.1604 35.2638C21.8484 35.2638 21.5947 35.0105 21.5947 34.6981L21.5951 33.7372C21.5951 33.4252 21.8484 33.1715 22.1608 33.1715C22.4728 33.1715 22.7265 33.4248 22.7265 33.7372V34.6981C22.7261 35.0101 22.4728 35.2638 22.1604 35.2638Z" fill="#103E13"/>
<path d="M6.00047 39.1759C6.00047 39.488 6.25372 39.7416 6.56615 39.7416H41.0139C41.3259 39.7416 41.5796 39.4884 41.5796 39.1759C41.5796 38.8639 41.3263 38.6103 41.0139 38.6103H39.9682V22.369C39.9682 22.057 39.715 21.8033 39.4025 21.8033L30.1668 21.8037V10.0946C30.1668 9.89655 30.0635 9.71352 29.8946 9.61095C29.7262 9.50799 29.5156 9.50168 29.3404 9.5928L18.8401 15.0598C18.6527 15.1572 18.5359 15.3505 18.5359 15.5616V25.7892H8.37388C8.06186 25.7892 7.8082 26.0425 7.8082 26.3549V38.6104H6.56489C6.25287 38.61 6 38.8632 6 39.1756L6.00047 39.1759ZM30.167 30.371H38.8374V38.6107L30.167 38.6103V30.371ZM30.167 26.4401H38.8374V29.2401L30.167 29.2397V26.4401ZM30.167 22.9344H38.8374V25.3096H30.167V22.9344ZM19.6667 15.905L29.0353 11.027V38.6098H19.6667V15.905ZM11.7359 34.0923C11.7359 32.9184 12.666 31.9629 13.8096 31.9629C14.9531 31.9629 15.8837 32.918 15.8837 34.0923V38.6105H11.7359V34.0923ZM8.93952 26.9204H18.5358V38.6103H17.015V34.0921C17.015 32.2945 15.5776 30.8318 13.8096 30.8318C12.0424 30.8318 10.605 32.2941 10.605 34.0921V38.6103H8.93952V26.9204Z" fill="#103E13"/>
</svg>
