<svg width="65" height="57" viewBox="0 0 65 57" fill="none" xmlns="http://www.w3.org/2000/svg">
<path d="M65 38.5288C65 48.4699 56.9411 56.5288 47 56.5288L20 56.5288C17.2386 56.5288 15 54.2902 15 51.5288L15 17.5288C15 12.006 19.4772 7.52881 25 7.52881L60 7.52881C62.7614 7.52881 65 9.76739 65 12.5288L65 38.5288Z" fill="#E8F5E9"/>
<path d="M23.99 10.5288C20.4187 10.5288 17.5114 13.4627 17.5114 17.0492C17.5114 19.318 18.6765 21.3213 20.4358 22.489C18.3109 23.1994 16.4723 24.5273 15.1238 26.2645C14.3782 25.691 13.5451 25.2298 12.647 24.8993C14.0089 23.8883 14.8989 22.2642 14.8989 20.4388C14.8989 17.397 12.4388 14.907 9.41547 14.907C6.39215 14.907 3.93208 17.397 3.93208 20.4388C3.93208 22.2652 4.82277 23.8901 6.18579 24.9011C2.57721 26.2327 0 29.7191 0 33.8221V36.7042C0.000369347 36.924 0.0882567 37.1344 0.244089 37.2892C0.39992 37.4443 0.610779 37.5307 0.830496 37.5299H13.4755C13.5061 37.5333 13.5368 37.5351 13.5674 37.5347H34.4133C34.4439 37.5351 34.4749 37.5333 34.5052 37.5299H47.1511C47.6057 37.5281 47.9739 37.1592 47.975 36.7042V33.8221C47.975 29.7191 45.4022 26.2327 41.7955 24.9007C43.1585 23.8901 44.0492 22.2648 44.0492 20.4384C44.0492 17.3967 41.5892 14.9066 38.5658 14.9066C35.5426 14.9066 33.0824 17.3967 33.0824 20.4384C33.0824 22.2638 33.9728 23.8882 35.3346 24.8989C34.4347 25.2302 33.6013 25.6929 32.8546 26.2678C31.5067 24.5296 29.6707 23.1999 27.5459 22.489C29.3047 21.3213 30.4703 19.318 30.4703 17.0492C30.4703 13.4627 27.5614 10.5288 23.9902 10.5288H23.99ZM23.99 12.1832C26.661 12.1832 28.8142 14.3508 28.8142 17.0492C28.8142 19.7264 26.6945 21.873 24.0531 21.9074C24.0321 21.9074 24.0114 21.9044 23.99 21.9044C23.9686 21.9044 23.9483 21.9074 23.9268 21.9074C21.2854 21.8734 19.1672 19.7265 19.1672 17.0492C19.1672 14.3505 21.3186 12.1832 23.9896 12.1832H23.99ZM9.41556 16.5613C11.5348 16.5613 13.2446 18.2813 13.2446 20.4387C13.2446 22.5816 11.557 24.2943 9.45763 24.3175C9.4436 24.3175 9.42994 24.3161 9.41553 24.3161C9.4015 24.3161 9.38784 24.3175 9.37344 24.3175C7.2741 24.2943 5.58647 22.5812 5.58647 20.4387C5.58647 18.2814 7.29623 16.5613 9.4155 16.5613H9.41556ZM38.5653 16.5613C40.6846 16.5613 42.3944 18.2813 42.3944 20.4387C42.3944 22.5816 40.7067 24.2943 38.6074 24.3175C38.5934 24.3175 38.5797 24.3161 38.5653 24.3161C38.5513 24.3161 38.5376 24.3175 38.5232 24.3175C36.4239 24.2943 34.7363 22.5812 34.7363 20.4387C34.7363 18.2814 36.446 16.5613 38.5653 16.5613H38.5653ZM23.9266 23.5616C23.9477 23.562 23.9684 23.5646 23.9898 23.5646C24.0108 23.5646 24.0315 23.5616 24.0529 23.5616C29.3502 23.5956 33.5896 27.8715 33.5896 33.224L33.5892 35.8799H14.3911V33.224C14.3911 27.871 18.6293 23.5957 23.9259 23.5616H23.9266ZM9.35223 25.9738C9.37327 25.9742 9.39395 25.9767 9.41537 25.9767C9.43679 25.9767 9.4571 25.9738 9.47852 25.9738C11.2702 25.9882 12.9054 26.606 14.2074 27.6396C13.2757 29.2881 12.7369 31.1909 12.7369 33.2245V35.874H1.65369V33.822C1.65369 29.4719 5.07396 26.0077 9.35203 25.9734L9.35223 25.9738ZM38.502 25.9738C38.5234 25.9742 38.5437 25.9767 38.5652 25.9767C38.5866 25.9767 38.6069 25.9738 38.6283 25.9738C42.9064 26.0078 46.3266 29.4723 46.3266 33.8224V35.874H35.2377L35.2374 33.2245C35.2374 31.192 34.7001 29.2906 33.7702 27.6425C35.0726 26.6075 36.7089 25.9882 38.5021 25.9738H38.502Z" fill="#103E13"/>
</svg>
