<svg width="23" height="16" viewBox="0 0 23 16" fill="none" xmlns="http://www.w3.org/2000/svg">
<path d="M19.75 0.5H3.25C2.52065 0.5 1.82118 0.774842 1.30545 1.26407C0.789729 1.75329 0.5 2.41683 0.5 3.1087V12.8913C0.5 13.5832 0.789729 14.2467 1.30545 14.7359C1.82118 15.2252 2.52065 15.5 3.25 15.5H19.75C20.4793 15.5 21.1788 15.2252 21.6945 14.7359C22.2103 14.2467 22.5 13.5832 22.5 12.8913V3.1087C22.5 2.41683 22.2103 1.75329 21.6945 1.26407C21.1788 0.774842 20.4793 0.5 19.75 0.5ZM19.4956 4.91521L11.9331 10.7848C11.8106 10.879 11.6577 10.9305 11.5 10.9305C11.3423 10.9305 11.1894 10.879 11.0669 10.7848L3.50438 4.91521C3.4242 4.86488 3.35604 4.79916 3.3043 4.72229C3.25257 4.64543 3.2184 4.55912 3.204 4.46895C3.18961 4.37878 3.19532 4.28674 3.22076 4.19879C3.24619 4.11084 3.29079 4.02893 3.35167 3.95834C3.41255 3.88776 3.48835 3.83008 3.5742 3.78901C3.66004 3.74795 3.75401 3.72442 3.85003 3.71995C3.94605 3.71547 4.042 3.73015 4.13167 3.76304C4.22134 3.79593 4.30274 3.84629 4.37062 3.91088L11.5 9.4413L18.6294 3.91088C18.7714 3.82172 18.9433 3.78575 19.1117 3.80993C19.2801 3.83411 19.433 3.91673 19.5409 4.04178C19.6487 4.16682 19.7038 4.32537 19.6954 4.48674C19.6871 4.64811 19.6159 4.8008 19.4956 4.91521Z" fill="url(#paint0_linear_41_1195)"/>
<defs>
<linearGradient id="paint0_linear_41_1195" x1="11.5" y1="0.5" x2="11.5" y2="15.5" gradientUnits="userSpaceOnUse">
<stop stop-color="#4CAF4F"/>
<stop offset="1" stop-color="#10DC17"/>
</linearGradient>
</defs>
</svg>
