<svg width="20" height="21" viewBox="0 0 20 21" fill="none" xmlns="http://www.w3.org/2000/svg">
<path d="M16.5317 13.1353C16.3889 12.9701 16.2122 12.8375 16.0136 12.7467C15.815 12.6558 15.5992 12.6088 15.3808 12.6088C15.1625 12.6088 14.9467 12.6558 14.7481 12.7467C14.5495 12.8375 14.3728 12.9701 14.23 13.1353C13.6923 13.6666 13.1546 14.2044 12.6234 14.7489C12.5735 14.8168 12.4993 14.8629 12.4162 14.8776C12.3332 14.8923 12.2477 14.8744 12.1775 14.8276C11.83 14.6374 11.4562 14.4865 11.1217 14.2766C9.58706 13.2817 8.22674 12.0407 7.09542 10.6034C6.50475 9.90684 6.01672 9.12932 5.64619 8.29451C5.6059 8.22529 5.59233 8.14371 5.60803 8.06517C5.62374 7.98662 5.66764 7.91655 5.73145 7.86816C6.26916 7.34341 6.79376 6.81211 7.32492 6.27425C7.49827 6.13021 7.63778 5.94975 7.73353 5.74569C7.82927 5.54163 7.87891 5.31899 7.87891 5.09358C7.87891 4.86816 7.82927 4.64551 7.73353 4.44145C7.63778 4.23739 7.49827 4.05692 7.32492 3.91289L6.05932 2.64695C5.62653 2.21403 5.19373 1.77456 4.74782 1.33508C4.60382 1.17176 4.42673 1.04096 4.22831 0.951368C4.02988 0.861773 3.81467 0.81543 3.59697 0.81543C3.37927 0.81543 3.16405 0.861773 2.96563 0.951368C2.76721 1.04096 2.59012 1.17176 2.44612 1.33508C1.90184 1.86639 1.3838 2.41736 0.826408 2.9421C0.335681 3.40505 0.0421322 4.03932 0.00672718 4.71313C-0.0399863 5.81818 0.157032 6.91998 0.583793 7.94032C1.4017 10.0614 2.57968 12.0253 4.06583 13.7453C6.02189 16.0948 8.45644 18.0001 11.207 19.3338C12.4293 19.9741 13.7668 20.3643 15.1415 20.4817C15.602 20.5335 16.0682 20.4748 16.5015 20.3106C16.9348 20.1463 17.3228 19.8812 17.6334 19.5372C18.0924 19.019 18.6104 18.5467 19.1023 18.0548C19.2723 17.9101 19.4089 17.7301 19.5026 17.5274C19.5963 17.3247 19.6448 17.104 19.6448 16.8806C19.6448 16.6573 19.5963 16.4367 19.5026 16.2339C19.4089 16.0312 19.2723 15.8513 19.1023 15.7065C18.2541 14.8495 17.3973 13.9924 16.5317 13.1353Z" fill="url(#paint0_linear_41_1217)"/>
<path d="M19.935 9.38994C18.2275 5.40046 15.0401 2.22864 11.0429 0.541426C10.882 0.481316 10.7038 0.486799 10.5469 0.556719C10.3899 0.62664 10.2666 0.755396 10.2036 0.915292C10.1692 0.995304 10.1512 1.08136 10.1504 1.16843C10.1497 1.25551 10.1662 1.34186 10.1992 1.42245C10.2322 1.50305 10.2808 1.57626 10.3424 1.63784C10.4039 1.69942 10.4771 1.74814 10.5577 1.78113C14.2423 3.3382 17.1803 6.26289 18.7546 9.94092C18.825 10.0969 18.9535 10.2192 19.1128 10.2817C19.2721 10.3442 19.4494 10.3419 19.6071 10.2754C19.6878 10.2401 19.7606 10.1889 19.821 10.1248C19.8815 10.0607 19.9285 9.98502 19.9591 9.90236C19.9897 9.81971 20.0033 9.73174 19.9992 9.6437C19.995 9.55566 19.9732 9.46935 19.935 9.38994Z" fill="url(#paint1_linear_41_1217)"/>
<path d="M10.2168 5.34284C12.4502 6.28383 14.2319 8.05427 15.1874 10.282C15.2381 10.3919 15.3183 10.4856 15.419 10.5528C15.5197 10.6199 15.637 10.6579 15.7579 10.6625C15.8464 10.6618 15.9337 10.6416 16.0136 10.6034C16.1644 10.5295 16.2811 10.4006 16.3397 10.2431C16.3983 10.0857 16.3942 9.9118 16.3284 9.75727C15.2454 7.22803 13.2237 5.21763 10.6889 4.14906C10.5328 4.09363 10.3615 4.09935 10.2095 4.16505C10.0574 4.23076 9.93587 4.35157 9.86922 4.50325C9.80757 4.661 9.80932 4.8365 9.87411 4.99299C9.93889 5.14949 10.0617 5.27485 10.2168 5.34284Z" fill="url(#paint2_linear_41_1217)"/>
<defs>
<linearGradient id="paint0_linear_41_1217" x1="9.8224" y1="0.81543" x2="9.8224" y2="20.5" gradientUnits="userSpaceOnUse">
<stop stop-color="#4CAF4F"/>
<stop offset="1" stop-color="#10DC17"/>
</linearGradient>
<linearGradient id="paint1_linear_41_1217" x1="15.0751" y1="0.5" x2="15.0751" y2="10.327" gradientUnits="userSpaceOnUse">
<stop stop-color="#4CAF4F"/>
<stop offset="1" stop-color="#10DC17"/>
</linearGradient>
<linearGradient id="paint2_linear_41_1217" x1="13.1025" y1="4.11127" x2="13.1025" y2="10.6625" gradientUnits="userSpaceOnUse">
<stop stop-color="#4CAF4F"/>
<stop offset="1" stop-color="#10DC17"/>
</linearGradient>
</defs>
</svg>
