<svg width="60" height="60" viewBox="0 0 60 60" fill="none" xmlns="http://www.w3.org/2000/svg">
<path d="M30 0C13.4332 0 0 13.4306 0 29.9987C0 46.5668 13.4319 59.9974 30 59.9974C46.5694 59.9974 60 46.5668 60 29.9987C60 13.4306 46.5694 0 30 0ZM30 8.96995C35.4819 8.96995 39.924 13.4134 39.924 18.8926C39.924 24.3732 35.4819 28.8153 30 28.8153C24.5208 28.8153 20.0786 24.3732 20.0786 18.8926C20.0786 13.4134 24.5208 8.96995 30 8.96995ZM29.9934 52.1541C24.526 52.1541 19.5186 50.163 15.6562 46.8673C14.7154 46.0647 14.1724 44.888 14.1724 43.6532C14.1724 38.0963 18.6699 33.6489 24.2282 33.6489H35.7744C41.334 33.6489 45.8144 38.0963 45.8144 43.6532C45.8144 44.8893 45.2741 46.0634 44.3319 46.8659C40.4709 50.163 35.4621 52.1541 29.9934 52.1541Z" fill="#4CAF4F"/>
</svg>
